<!-- freshcart-favicon.svg -->
<svg xmlns="http://www.w3.org/2000/svg" width="36" height="36" viewBox="0 0 36 36">
  <style>
    :root {
      --fg: #0f172a;     /* cart outline */
      --accent: #16a34a; /* fresh green */
      --wheel: #9ca3af;  /* wheel color */
    }
    .fc-cart { fill: none; stroke: var(--fg); stroke-width: 2; stroke-linecap: round; stroke-linejoin: round; }
    .fc-leaf { fill: var(--accent); }
    .fc-wheel { fill: var(--wheel); }
  </style>

  <!-- Cart body -->
  <path class="fc-cart" d="M4 8 H12 L14 18 H28 L30 12 H13"></path>
  <!-- Handle -->
  <path class="fc-cart" d="M4 8 L3 4"></path>
  <!-- Wheels -->
  <circle class="fc-wheel" cx="14" cy="22" r="2.2"></circle>
  <circle class="fc-wheel" cx="28" cy="22" r="2.2"></circle>

  <!-- Leaf -->
  <g transform="translate(20,4) rotate(-18)">
    <path class="fc-leaf" d="M5.8 0.4 C2.4 1.0 0.5 3.8 0.5 6.5 C0.5 9.2 2.9 12.0 6.0 13.0 C7.6 13.6 9.8 13.3 12.0 11.8 C10.6 9.8 8.7 7.4 7.6 5.8 C10.2 5.4 12.6 4.2 14.6 2.6 C12.6 0.9 9.9 0.1 5.8 0.4 Z"></path>
  </g>
</svg>
